<svg xmlns="http://www.w3.org/2000/svg" viewBox="0 0 100 100">
  <defs>
    <linearGradient id="grad" x1="0%" y1="0%" x2="100%" y2="100%">
      <stop offset="0%" style="stop-color:#00d4ff"/>
      <stop offset="100%" style="stop-color:#00ff88"/>
    </linearGradient>
  </defs>
  <circle cx="50" cy="50" r="45" fill="url(#grad)"/>
  <path d="M50 10 C27.9 10 10 27.9 10 50 C10 72.1 27.9 90 50 90 C72.1 90 90 72.1 90 50 C90 27.9 72.1 10 50 10 Z M45 82.9 C27.1 80.5 13.3 65.5 13.3 50 C13.3 45.9 14 41.9 15.4 38.2 L35 57.8 L35 61.1 C35 64.8 38 67.8 41.7 67.8 L45 67.8 L45 82.9 Z M73.6 73.4 C72 70.7 69 68.9 65.6 68.9 L61.7 68.9 L61.7 58.9 C61.7 57.1 60.2 55.6 58.3 55.6 L38.3 55.6 L38.3 48.9 L45 48.9 C46.8 48.9 48.3 47.4 48.3 45.6 L48.3 38.9 L55 38.9 C58.7 38.9 61.7 35.9 61.7 32.2 L61.7 29.5 C74.5 33.5 83.3 45.7 83.3 59.7 C83.3 65.6 81.7 71.1 78.8 75.8 Z" fill="#0a1628"/>
</svg>
